<?xml version="1.0" standalone="no"?>
<!DOCTYPE svg PUBLIC "-//W3C//DTD SVG 20010904//EN"
 "http://www.w3.org/TR/2001/REC-SVG-20010904/DTD/svg10.dtd">
<svg version="1.0" xmlns="http://www.w3.org/2000/svg"
 width="555.000000pt" height="718.000000pt" viewBox="0 0 555.000000 718.000000"
 preserveAspectRatio="xMidYMid meet">

<g transform="translate(0.000000,718.000000) scale(0.100000,-0.100000)"
fill="#000000" stroke="none">
<path d="M1 5008 c1 -1210 5 -2138 10 -2093 53 512 229 1035 469 1391 170 251
493 569 835 820 275 202 518 349 1111 672 518 283 651 358 882 503 383 240
743 522 1007 788 l90 91 -2203 0 -2202 0 1 -2172z"/>
<path d="M4425 7133 c3 -27 19 -167 35 -312 l28 -263 -36 -32 c-432 -372 -657
-701 -717 -1044 -63 -357 56 -708 433 -1286 135 -207 271 -513 336 -756 182
-682 17 -1274 -495 -1781 -220 -218 -271 -249 -770 -477 -300 -137 -409 -192
-379 -192 9 0 72 7 140 15 907 111 1588 478 1986 1071 204 305 323 700 324
1083 1 80 2 85 16 66 24 -31 78 -141 117 -240 40 -100 73 -221 92 -335 11 -62
13 335 14 2228 l1 2302 -565 0 -566 0 6 -47z"/>
<path d="M2 1178 l-2 -1178 1248 1 c686 1 1234 4 1217 6 -347 43 -710 137
-985 255 -322 138 -621 342 -835 570 -368 393 -577 882 -638 1488 -2 19 -5
-495 -5 -1142z"/>
<path d="M5540 2199 c0 -54 -41 -230 -82 -348 -290 -849 -1246 -1609 -2273
-1806 -71 -14 -164 -29 -205 -34 -45 -5 461 -9 1248 -10 l1322 -1 0 1115 c0
613 -2 1115 -5 1115 -3 0 -5 -14 -5 -31z"/>
</g>
</svg>
